<?xml version="1.0" encoding="UTF-8"?><svg id="Calque_2" xmlns="http://www.w3.org/2000/svg" viewBox="0 0 387.88 59.09"><defs><style>.cls-1{fill:none;stroke:#999998;stroke-miterlimit:10;}</style></defs><g id="text"><g><path d="M0,14.74H5.07l2.26,23.82h.06l2.26-23.82h5.07V48.02h-3.36V22.82h-.06l-2.58,25.2h-2.97L3.16,22.82h-.06v25.2H0V14.74Z"/><path d="M18.31,46.31c-.93-1.46-1.39-3.52-1.39-6.18V22.63c0-2.66,.46-4.72,1.39-6.18,.93-1.46,2.26-2.19,4-2.19s3.08,.73,4,2.19c.93,1.46,1.39,3.52,1.39,6.18v17.5c0,2.66-.46,4.72-1.39,6.18-.93,1.46-2.26,2.19-4,2.19s-3.08-.73-4-2.19Zm5.84-5.85V22.3c0-2.19-.61-3.28-1.84-3.28s-1.84,1.09-1.84,3.28v18.17c0,2.19,.61,3.28,1.84,3.28s1.84-1.09,1.84-3.28Z"/><path d="M28.9,14.74h3.58l2.32,25.82h.06l2.33-25.82h3.26l-3.42,33.29h-4.71l-3.42-33.29Z"/><path d="M41.98,14.74h3.55V48.02h-3.55V14.74Z"/><path d="M47.98,14.74h4.46l3.46,19.92h.06V14.74h3.16V48.02h-3.65l-4.26-24.3h-.06v24.3h-3.16V14.74Z"/><path d="M62.67,46.34c-.9-1.44-1.36-3.51-1.36-6.21V22.63c0-2.69,.45-4.76,1.36-6.21,.9-1.44,2.22-2.16,3.94-2.16s3.04,.72,3.94,2.16c.9,1.44,1.36,3.51,1.36,6.21v2.85h-3.36v-3.19c0-2.19-.61-3.28-1.84-3.28s-1.84,1.09-1.84,3.28v18.21c0,2.16,.61,3.23,1.84,3.23s1.84-1.08,1.84-3.23v-6.52h-1.78v-4.76h5.13v10.89c0,2.69-.45,4.76-1.36,6.21-.9,1.44-2.22,2.16-3.94,2.16s-3.04-.72-3.94-2.16Z"/><path d="M78.14,14.74h3.42l1.58,25.58h.06l1.68-25.58h3.87l1.68,25.58h.06l1.58-25.58h3.07l-2.29,33.29h-4.42l-1.61-22.45h-.06l-1.61,22.45h-4.71l-2.29-33.29Z"/><path d="M97.9,46.31c-.93-1.46-1.39-3.52-1.39-6.18V22.63c0-2.66,.46-4.72,1.39-6.18,.93-1.46,2.26-2.19,4-2.19s3.08,.73,4,2.19c.93,1.46,1.39,3.52,1.39,6.18v17.5c0,2.66-.46,4.72-1.39,6.18-.93,1.46-2.26,2.19-4,2.19s-3.08-.73-4-2.19Zm5.84-5.85V22.3c0-2.19-.61-3.28-1.84-3.28s-1.84,1.09-1.84,3.28v18.17c0,2.19,.61,3.28,1.84,3.28s1.84-1.09,1.84-3.28Z"/><path d="M109.49,14.74h5.07l2.26,23.82h.06l2.26-23.82h5.07V48.02h-3.36V22.82h-.06l-2.58,25.2h-2.97l-2.58-25.2h-.06v25.2h-3.1V14.74Z"/><path d="M129.41,14.74h4.81l3.68,33.29h-3.55l-.65-6.61v.09h-4.04l-.65,6.52h-3.29l3.68-33.29Zm3.88,22.26l-1.58-16.45h-.06l-1.55,16.45h3.2Z"/><path d="M139.42,14.74h4.46l3.46,19.92h.06V14.74h3.16V48.02h-3.65l-4.26-24.3h-.06v24.3h-3.16V14.74Z"/><path d="M157.99,14.74h5.07l2.26,23.82h.06l2.26-23.82h5.07V48.02h-3.36V22.82h-.06l-2.58,25.2h-2.97l-2.58-25.2h-.06v25.2h-3.1V14.74Z"/><path d="M176.3,46.31c-.93-1.46-1.39-3.52-1.39-6.18V22.63c0-2.66,.46-4.72,1.39-6.18,.93-1.46,2.26-2.19,4-2.19s3.08,.73,4,2.19c.93,1.46,1.39,3.52,1.39,6.18v17.5c0,2.66-.46,4.72-1.39,6.18-.93,1.46-2.26,2.19-4,2.19s-3.08-.73-4-2.19Zm5.84-5.85V22.3c0-2.19-.61-3.28-1.84-3.28s-1.84,1.09-1.84,3.28v18.17c0,2.19,.61,3.28,1.84,3.28s1.84-1.09,1.84-3.28Z"/><path d="M186.89,14.74h3.58l2.32,25.82h.06l2.33-25.82h3.26l-3.42,33.29h-4.71l-3.42-33.29Z"/><path d="M199.96,14.74h3.55V48.02h-3.55V14.74Z"/><path d="M205.97,14.74h4.46l3.46,19.92h.06V14.74h3.16V48.02h-3.65l-4.26-24.3h-.06v24.3h-3.16V14.74Z"/><path d="M220.66,46.34c-.9-1.44-1.36-3.51-1.36-6.21V22.63c0-2.69,.45-4.76,1.36-6.21,.9-1.44,2.22-2.16,3.94-2.16s3.04,.72,3.94,2.16c.9,1.44,1.36,3.51,1.36,6.21v2.85h-3.36v-3.19c0-2.19-.61-3.28-1.84-3.28s-1.84,1.09-1.84,3.28v18.21c0,2.16,.61,3.23,1.84,3.23s1.84-1.08,1.84-3.23v-6.52h-1.78v-4.76h5.13v10.89c0,2.69-.45,4.76-1.36,6.21-.9,1.44-2.22,2.16-3.94,2.16s-3.04-.72-3.94-2.16Z"/><path d="M236.13,14.74h3.42l1.58,25.58h.06l1.68-25.58h3.87l1.68,25.58h.06l1.58-25.58h3.07l-2.29,33.29h-4.42l-1.61-22.45h-.06l-1.61,22.45h-4.71l-2.29-33.29Z"/><path d="M255.89,46.31c-.93-1.46-1.39-3.52-1.39-6.18V22.63c0-2.66,.46-4.72,1.39-6.18,.93-1.46,2.26-2.19,4-2.19s3.08,.73,4,2.19c.93,1.46,1.39,3.52,1.39,6.18v17.5c0,2.66-.46,4.72-1.39,6.18-.93,1.46-2.26,2.19-4,2.19s-3.08-.73-4-2.19Zm5.84-5.85V22.3c0-2.19-.61-3.28-1.84-3.28s-1.84,1.09-1.84,3.28v18.17c0,2.19,.61,3.28,1.84,3.28s1.84-1.09,1.84-3.28Z"/><path d="M267.48,14.74h5.07l2.26,23.82h.06l2.26-23.82h5.07V48.02h-3.36V22.82h-.06l-2.58,25.2h-2.97l-2.58-25.2h-.06v25.2h-3.1V14.74Z"/><path d="M287.4,14.74h4.81l3.68,33.29h-3.55l-.65-6.61v.09h-4.04l-.65,6.52h-3.29l3.68-33.29Zm3.88,22.26l-1.58-16.45h-.06l-1.55,16.45h3.2Z"/><path d="M297.41,14.74h4.46l3.46,19.92h.06V14.74h3.16V48.02h-3.65l-4.26-24.3h-.06v24.3h-3.16V14.74Z"/><path d="M315.98,14.74h5.07l2.26,23.82h.06l2.26-23.82h5.07V48.02h-3.36V22.82h-.06l-2.58,25.2h-2.97l-2.58-25.2h-.06v25.2h-3.1V14.74Z"/><path d="M334.28,46.31c-.93-1.46-1.39-3.52-1.39-6.18V22.63c0-2.66,.46-4.72,1.39-6.18,.93-1.46,2.26-2.19,4-2.19s3.08,.73,4,2.19c.93,1.46,1.39,3.52,1.39,6.18v17.5c0,2.66-.46,4.72-1.39,6.18-.93,1.46-2.26,2.19-4,2.19s-3.08-.73-4-2.19Zm5.84-5.85V22.3c0-2.19-.61-3.28-1.84-3.28s-1.84,1.09-1.84,3.28v18.17c0,2.19,.61,3.28,1.84,3.28s1.84-1.09,1.84-3.28Z"/><path d="M344.88,14.74h3.58l2.32,25.82h.06l2.33-25.82h3.26l-3.42,33.29h-4.71l-3.42-33.29Z"/><path d="M357.95,14.74h3.55V48.02h-3.55V14.74Z"/><path d="M363.96,14.74h4.46l3.46,19.92h.06V14.74h3.16V48.02h-3.65l-4.26-24.3h-.06v24.3h-3.16V14.74Z"/><path d="M378.65,46.34c-.9-1.44-1.36-3.51-1.36-6.21V22.63c0-2.69,.45-4.76,1.36-6.21,.9-1.44,2.22-2.16,3.94-2.16s3.04,.72,3.94,2.16c.9,1.44,1.36,3.51,1.36,6.21v2.85h-3.36v-3.19c0-2.19-.61-3.28-1.84-3.28s-1.84,1.09-1.84,3.28v18.21c0,2.16,.61,3.23,1.84,3.23s1.84-1.08,1.84-3.23v-6.52h-1.78v-4.76h5.13v10.89c0,2.69-.45,4.76-1.36,6.21-.9,1.44-2.22,2.16-3.94,2.16s-3.04-.72-3.94-2.16Z"/></g><rect class="cls-1" x="2.03" y=".5" width="379.5" height="58.09"/></g></svg>