<?xml version="1.0" encoding="UTF-8"?><svg xmlns="http://www.w3.org/2000/svg" viewBox="0 0 80.27 35.43"><defs><style>.d{fill:#fff;}</style></defs><g id="a"/><g id="b"><g id="c"><g><g><path class="d" d="M12.47,7.77h1.5l6.62,15.05h-2.19l-1.97-4.44-6.37-.03-1.89,4.42h-2.2L12.47,7.77Zm3.1,8.7l-2.38-5.42-2.26,5.4,4.64,.02Z"/><path class="d" d="M33.84,7.96h2l-.07,14.94h-2.15l.06-11.63-4.62,5.75h-.4l-4.62-5.79-.06,11.62h-2.14l.07-14.94h2.02l4.93,6.16,4.96-6.11Z"/><path class="d" d="M43.38,22.93l-5.05-.02,.07-14.93,3.91,.02c1.23,0,2.19,.18,2.88,.51s1.21,.79,1.57,1.38c.36,.58,.54,1.25,.54,2.02,0,1.47-.77,2.51-2.29,3.14,1.09,.21,1.95,.66,2.6,1.36,.64,.69,.96,1.52,.96,2.48,0,.76-.2,1.44-.6,2.04s-.97,1.08-1.73,1.46-1.71,.56-2.85,.55Zm-1.02-13.03h-1.84l-.02,4.48h1.42c1.14,.01,1.95-.2,2.43-.63,.48-.43,.73-.99,.73-1.68,0-1.43-.9-2.15-2.73-2.16Zm.13,6.39h-2l-.02,4.72h2.11c1.17,.02,1.96-.07,2.38-.25s.75-.46,1.01-.84,.38-.8,.39-1.24-.13-.87-.39-1.25c-.27-.38-.64-.66-1.13-.85-.49-.19-1.27-.28-2.33-.29Z"/><path class="d" d="M50.61,8.04l8.46,.04v1.9l-6.34-.03-.02,4.55,6.11,.03v1.91l-6.12-.03-.02,4.64,6.53,.03v1.9l-8.68-.04,.07-14.91Z"/><path class="d" d="M61.98,23.02l.07-14.93,3.74,.02c1.51,0,2.71,.39,3.59,1.14,.88,.75,1.32,1.77,1.32,3.04,0,.87-.23,1.62-.66,2.25-.44,.63-.94,1.1-1.75,1.54l3.75,6.99h-2.54l-3.29-6.53s-.79,0-1.49,0h-.56l-.03,6.49h-2.14Zm2.84-13.11h-.64l-.02,4.71h.81c1.08,0,1.83-.08,2.23-.26,.4-.18,.72-.46,.94-.83s.34-.8,.34-1.28-.12-.9-.37-1.28c-.25-.38-.6-.65-1.05-.81-.45-.16-1.2-.24-2.25-.25Z"/></g><g><path class="d" d="M36.22,25.87v2.26h-.63v-1.74c0-.35-.04-.59-.13-.72-.09-.14-.25-.21-.48-.21-.13,0-.25,.03-.35,.09-.11,.06-.23,.16-.37,.31v2.26h-.63v-3.12h.63v.41c.31-.31,.62-.47,.92-.47,.39,0,.7,.19,.91,.57,.33-.38,.68-.57,1.03-.56,.3,0,.55,.11,.74,.34,.19,.22,.29,.56,.29,1.01v1.84h-.62v-1.85c.01-.26-.04-.46-.15-.6-.11-.14-.26-.21-.46-.21-.26,0-.49,.13-.72,.38Z"/><path class="d" d="M40.59,25.03c.47,0,.87,.16,1.18,.46,.31,.31,.47,.69,.46,1.15s-.16,.82-.48,1.12-.72,.44-1.2,.44-.86-.15-1.17-.46c-.31-.3-.47-.68-.46-1.13s.16-.83,.48-1.14c.32-.3,.72-.45,1.19-.45Zm-.04,.55c-.3,0-.54,.09-.73,.29s-.29,.44-.29,.74,.09,.54,.29,.73c.19,.19,.44,.28,.75,.29s.55-.09,.74-.28c.19-.19,.29-.43,.29-.73s-.1-.54-.3-.74c-.2-.2-.45-.29-.76-.29Z"/><path class="d" d="M44.92,25.06h.67l-1.39,3.16h-.21l-1.39-3.18h.67l.83,1.92,.82-1.91Z"/><path class="d" d="M46.47,23.76c.1,0,.19,.04,.26,.11s.11,.16,.11,.26-.04,.18-.11,.26-.16,.11-.26,.11c-.09,0-.18-.04-.25-.11-.07-.07-.11-.16-.11-.26s.04-.18,.11-.25c.07-.07,.16-.11,.25-.11Zm-.31,1.31h.62v3.12h-.63v-3.12Z"/><path class="d" d="M48.37,25.07v.4c.27-.3,.59-.45,.94-.45,.19,0,.37,.05,.54,.15s.29,.24,.38,.41,.13,.45,.13,.83v1.78h-.62v-1.78c.01-.32-.04-.55-.13-.68s-.26-.21-.49-.21c-.29,0-.54,.14-.74,.43v2.22h-.64v-3.12h.64Z"/><path class="d" d="M51.14,26.16c0-.33,.12-.59,.37-.79,.24-.19,.58-.29,.99-.28h1.28v.49h-.63c.12,.12,.21,.23,.25,.34s.07,.22,.07,.35c0,.16-.05,.32-.14,.48-.09,.16-.21,.28-.36,.36-.15,.08-.38,.15-.72,.2-.23,.03-.35,.11-.35,.24,0,.07,.04,.13,.13,.18,.09,.05,.24,.1,.47,.15,.38,.09,.63,.15,.73,.2s.21,.12,.3,.2c.15,.15,.22,.34,.22,.56,0,.3-.13,.53-.4,.71-.26,.17-.62,.26-1.06,.26s-.8-.09-1.06-.27c-.26-.18-.4-.42-.39-.71,0-.42,.26-.69,.79-.81-.21-.13-.31-.27-.31-.4,0-.1,.05-.19,.13-.27s.21-.14,.36-.18c-.46-.21-.68-.53-.68-.99Zm1,2.19c-.21,0-.38,.04-.51,.13-.13,.09-.2,.2-.2,.34,0,.32,.29,.48,.86,.48,.27,0,.48-.04,.63-.12,.15-.08,.23-.19,.23-.34s-.09-.26-.28-.36c-.19-.09-.43-.14-.73-.14Zm.16-2.72c-.17,0-.31,.05-.43,.17s-.18,.25-.18,.41,.06,.29,.17,.4c.11,.11,.26,.16,.44,.16s.32-.05,.44-.16,.18-.24,.18-.4-.06-.3-.17-.41-.26-.16-.44-.16Z"/><path class="d" d="M58.92,25.98v2.26h-.63v-1.74c0-.35-.04-.59-.13-.72s-.25-.21-.48-.21c-.13,0-.25,.03-.35,.09s-.23,.16-.37,.31v2.26h-.63v-3.12h.63v.41c.31-.31,.62-.47,.92-.47,.39,0,.7,.19,.91,.57,.33-.38,.68-.57,1.03-.56,.3,0,.55,.11,.74,.34s.29,.56,.29,1.01v1.84h-.62v-1.85c.01-.26-.04-.46-.15-.6-.11-.14-.26-.21-.46-.21-.26,0-.49,.13-.72,.38Z"/><path class="d" d="M63.77,28.26v-.4c-.13,.14-.28,.25-.45,.33s-.34,.12-.5,.12c-.2,0-.38-.05-.54-.15-.17-.1-.29-.23-.37-.4-.08-.17-.12-.45-.12-.84v-1.78h.62v1.78c-.01,.33,.04,.56,.13,.68,.09,.13,.26,.2,.49,.2,.29,0,.54-.14,.75-.43v-2.22h.63v3.12h-.63Z"/><path class="d" d="M65.19,28.05v-.66c.18,.12,.35,.22,.53,.3,.18,.08,.33,.11,.46,.12s.24-.03,.33-.09c.09-.06,.14-.14,.14-.23s-.03-.17-.09-.23-.19-.15-.39-.26c-.4-.22-.66-.41-.78-.57-.12-.16-.18-.33-.18-.51,0-.24,.1-.43,.28-.58,.19-.15,.43-.22,.72-.22s.62,.09,.94,.26v.61c-.37-.22-.67-.33-.9-.34-.12,0-.22,.02-.29,.07-.07,.05-.11,.12-.11,.2,0,.07,.03,.14,.1,.21,.07,.07,.18,.15,.35,.24l.22,.13c.52,.3,.78,.62,.77,.98,0,.25-.1,.46-.3,.63-.2,.16-.46,.24-.77,.24-.19,0-.35-.02-.49-.06-.14-.04-.33-.11-.54-.22Z"/><path class="d" d="M68.44,23.86c.1,0,.19,.04,.26,.11,.07,.07,.11,.16,.11,.26s-.04,.18-.11,.26c-.07,.07-.16,.11-.26,.11-.09,0-.18-.04-.25-.11-.07-.07-.11-.16-.11-.26s.04-.18,.11-.25c.07-.07,.16-.11,.25-.11Zm-.31,1.31h.62v3.12h-.63v-3.12Z"/><path class="d" d="M72.05,27.57v.61c-.31,.11-.61,.17-.91,.17-.49,0-.88-.15-1.16-.44-.29-.29-.43-.68-.43-1.16s.15-.88,.43-1.18c.28-.3,.66-.45,1.12-.44,.16,0,.3,.02,.43,.05,.13,.03,.28,.09,.47,.17v.66c-.31-.2-.6-.3-.87-.3s-.51,.1-.68,.29c-.18,.19-.27,.44-.27,.74,0,.32,.09,.57,.29,.76,.19,.19,.45,.28,.78,.28,.24,0,.51-.07,.82-.2Z"/></g><path class="d" d="M79.74,.91l-.16,33.99L.53,34.52,.69,.53l79.05,.38m.53-.53L.17,0l-.17,35.05,80.11,.38,.17-35.05h0Z"/></g></g></g></svg>